Coordinates
version=1
nRows=6
nColumns=63
inDegrees=yes

Units are S.I. units (second, meters, Newtons, ...)
If the header above contains a line with 'inDegrees', this indicates whether rotational values are in degrees (yes) or radians (no).

endheader
time	pelvis_tilt	pelvis_list	pelvis_rotation	pelvis_tx	pelvis_ty	pelvis_tz	hip_flexion_r	hip_adduction_r	hip_rotation_r	knee_angle_r	knee_angle_r_beta	ankle_angle_r	subtalar_angle_r	mtp_angle_r	hip_flexion_l	hip_adduction_l	hip_rotation_l	knee_angle_l	knee_angle_l_beta	ankle_angle_l	subtalar_angle_l	mtp_angle_l	L5_S1_Flex_Ext	L5_S1_Lat_Bending	L5_S1_axial_rotation	L4_L5_Flex_Ext	L4_L5_Lat_Bending	L4_L5_axial_rotation	L3_L4_Flex_Ext	L3_L4_Lat_Bending	L3_L4_axial_rotation	L2_L3_Flex_Ext	L2_L3_Lat_Bending	L2_L3_axial_rotation	L1_L2_Flex_Ext	L1_L2_Lat_Bending	L1_L2_axial_rotation	L1_T12_Flex_Ext	L1_T12_Lat_Bending	L1_T12_axial_rotation	Abs_r3	Abs_r2	Abs_r1	Abs_t1	Abs_t2	neck_flexion	neck_bending	neck_rotation	arm_flex_r	arm_add_r	arm_rot_r	elbow_flex_r	pro_sup_r	wrist_flex_r	wrist_dev_r	arm_flex_l	arm_add_l	arm_rot_l	elbow_flex_l	pro_sup_l	wrist_flex_l	wrist_dev_l
      7.50000000	    -51.39745016	     -5.26108309	     -1.53644000	     -0.37148439	      1.11609009	      0.04254091	    100.16139924	     -7.30669866	     -5.77908513	    102.47357558	      1.78850129	      5.42151306	      1.72371564	      0.00000000	    100.82564531	     -7.89585331	     -0.01505262	     64.53058453	      1.12627117	     17.07356196	      5.36377809	      0.00000000	     -0.08108623	      0.53575518	      0.57526957	     -0.15058523	      0.71255439	      0.61122392	     -0.13321656	      1.30263515	      0.61122392	     -0.09267345	      1.30263515	      0.50336087	     -0.07529667	      1.09251197	      0.46740652	     -0.04633267	      0.82988478	      0.43145218	     -0.57919081	      6.06056977	      3.19947675	      0.00000000	      0.00000000	     -0.00000000	      0.00000000	      0.00000000	     78.27452139	    -12.43878137	     24.10575237	     26.60608461	     35.52500347	      0.00000000	      5.00000014	     79.37404608	     -5.90178217	     23.22333156	     21.33985795	     53.98178184	      0.00000000	      5.00000014
      7.50800000	    -51.35809255	     -5.34698741	     -1.75793621	     -0.37103161	      1.11607857	      0.04256374	    100.97537589	     -7.27104818	     -5.77194897	    103.85491972	      1.81261029	      5.82409198	      1.71099796	      0.00000000	     99.65630666	     -8.08801634	      0.05512207	     62.92360748	      1.09822413	     16.51185147	      5.93482029	      0.00000000	     -0.08197050	      0.55660273	      0.61538053	     -0.15222741	      0.74028163	      0.65384182	     -0.13466933	      1.35332387	      0.65384182	     -0.09368408	      1.35332387	      0.53845797	     -0.07611780	      1.13502428	      0.49999668	     -0.04683794	      0.86217762	      0.46153540	     -0.58550707	      6.29640137	      3.42256191	      0.00000000	      0.00000000	     -0.00000000	      0.00000000	      0.00000000	     78.25192791	    -12.48511130	     24.15142676	     26.63980202	     35.54218432	      0.00000000	      5.00000014	     79.22843266	     -5.92317047	     23.09406016	     21.42009441	     53.92892686	      0.00000000	      5.00000014
      7.51700000	    -51.28961091	     -5.05889911	     -1.50519370	     -0.37049661	      1.11587469	      0.04231781	    101.91446825	     -7.65907009	     -5.23042730	    105.40779115	      1.83971301	      6.77104590	      2.27250378	      0.00000000	     98.30158447	     -7.96167711	     -0.33276319	     61.24510030	      1.06892865	     16.58705418	      8.07304847	      0.00000000	     -0.08103087	      0.52381945	      0.55377715	     -0.15048243	      0.69667987	      0.58838822	     -0.13312562	      1.27361460	      0.58838822	     -0.09261018	      1.27361460	      0.48455500	     -0.07524527	      1.06817262	      0.44994393	     -0.04630104	      0.81139632	      0.41533286	     -0.57879542	      5.92555035	      3.07994235	      0.00000000	      0.00000000	     -0.00000000	      0.00000000	      0.00000000	     78.11707956	    -12.41273265	     24.33831763	     26.66408529	     35.51610994	      0.00000000	      5.00000014	     79.08960811	     -5.98314089	     22.41286445	     21.50488888	     53.74857381	      0.00000000	      5.00000014
      7.52500000	    -51.26877421	     -5.21275762	     -1.82148297	     -0.37006689	      1.11592904	      0.04244602	    102.73304509	     -7.50509267	     -5.30691370	    106.61317714	      1.86075097	      7.26019857	      2.28326187	      0.00000000	     97.14902963	     -8.22946672	     -0.18717012	     59.71463899	      1.04221706	     16.04883881	      8.40001681	      0.00000000	     -0.08144769	      0.55388416	      0.61271094	     -0.15125651	      0.73666593	      0.65100538	     -0.13381042	      1.34671394	      0.65100538	     -0.09308657	      1.34671394	      0.53612207	     -0.07563233	      1.12948058	      0.49782764	     -0.04653921	      0.85796656	      0.45953321	     -0.58177273	      6.26564838	      3.40771445	      0.00000000	      0.00000000	     -0.00000000	      0.00000000	      0.00000000	     78.13723603	    -12.46155066	     24.35427016	     26.67484268	     35.52756410	      0.00000000	      5.00000014	     78.93304223	     -5.98831531	     22.31208992	     21.56616740	     53.70609674	      0.00000000	      5.00000014
      7.53300000	    -51.21566648	     -4.94661655	     -1.51844161	     -0.36963857	      1.11581232	      0.04216352	    103.66890565	     -7.88241295	     -4.75858543	    108.00175382	      1.88498620	      8.48960012	      2.73854483	      0.00000000	     95.78212288	     -8.01262402	     -0.57015008	     58.02221200	      1.01267864	     15.96570138	      9.94567961	      0.00000000	     -0.08128200	      0.52252844	      0.54242496	     -0.15094880	      0.69496283	      0.57632652	     -0.13353819	      1.27047565	      0.57632652	     -0.09289720	      1.27047565	      0.47462184	     -0.07547846	      1.06553999	      0.44072028	     -0.04644453	      0.80939655	      0.40681872	     -0.58058918	      5.91094622	      3.01680493	      0.00000000	      0.00000000	     -0.00000000	      0.00000000	      0.00000000	     78.04587457	    -12.36952448	     24.50784432	     26.61940301	     35.52048127	      0.00000000	      5.00000014	     78.87202340	     -6.05847075	     21.85033863	     21.61237221	     53.58399264	      0.00000000	      5.00000014
      7.54200000	    -51.21270537	     -5.07037334	     -1.79358977	     -0.36929392	      1.11594183	      0.04226869	    104.52441209	     -7.74467110	     -4.78995657	    109.05610607	      1.90338812	      9.00631349	      2.84946540	      0.00000000	     94.61316008	     -8.27906224	     -0.53354407	     56.51819799	      0.98642864	     15.51220607	     10.27974158	      0.00000000	     -0.08101164	      0.54760704	      0.59216348	     -0.15044671	      0.72831736	      0.62917370	     -0.13309402	      1.33145175	      0.62917370	     -0.09258820	      1.33145175	      0.51814304	     -0.07522741	      1.11668027	      0.48113283	     -0.04629005	      0.84824330	      0.44412261	     -0.57865803	      6.19464030	      3.29343562	      0.00000000	      0.00000000	     -0.00000000	      0.00000000	      0.00000000	     78.08277086	    -12.39476500	     24.53276938	     26.60315696	     35.53056636	      0.00000000	      5.00000014	     78.75693850	     -6.03949677	     21.74517819	     21.65483646	     53.54380165	      0.00000000	      5.00000014
